:SAMPLES-PER-SECOND 30
:FULLY-SPECIFIED
:DEGREES
20
root  10.50779988 40.64444594 -7.424355304 -5.715060234 -50.45959854 7.166910172
lfemur  -25.06649971 10.25899982 -15.71959782
ltibia  -1.491570742e-006 -8.364404493e-007 55.81309891
lfoot  5.521815751e-007 -0.2500782013 -6.450689316
ltoes  -4.250644065 -19.5611806 -102.515957
rfemur  -17.47290039 16.44039917 4.272339344
rtibia  -8.727266732e-007 2.533748784e-007 47.92250061
rfoot  -2.316020982e-006 -16.68479919 2.842519283
rtoes  5.373923086 19.29304026 -105.8922705
lowerback  12.33619976 1.503670096 0.8555050492
upperback  3.181699991 2.086050034 1.334679961
thorax  -3.596430063 1.00011003 0.5936340094
rclavicle  0 -9.442270133e-015 7.951389973e-016
rhumerus  -17.43190002 27.11560059 -79.03279877
rradius  -7.782816926e-012 0.001642658608 115.9779968
rwrist  0.002739921212 0.003270594636 -3.762520075
rthumb  -92.93752616 -24.25625642 -97.11982154
rhand  -7.920061211e-032 -33.2840004 9.303460121
rfingers  -90 -7.125020027 -90
lclavicle  0 -9.442270133e-015 7.951389973e-016
lhumerus  -24.66670036 2.827749968 84.12409973
lradius  1.032090038e-011 -0.003757435596 130.8000031
lwrist  1.816137865e-011 1.409039812e-011 5.261730194
lthumb  89.89689403 5.08795885 91.16245106
lhand  -1.496451383e-031 -27.76390076 20.11240005
lfingers  90 7.125020027 -90
lowerneck  -8.629440308 6.08893013 -1.300519943
upperneck  6.193039894 8.351909637 -0.5967350006
head  3.497720003 4.078279972 0.5029760003
21
root  10.57788894 40.70266664 -7.353999671 -5.926000118 -50.73500061 7.226309776
lfemur  -25.12210083 10.5777998 -15.59279823
ltibia  -1.491570742e-006 -8.364404493e-007 55.8973999
lfoot  5.521815751e-007 -0.1475276798 -5.745489597
ltoes  -4.250644065 -19.5611806 -102.515957
rfemur  -17.15200424 16.81040001 3.849611044
rtibia  -8.727266732e-007 2.533748784e-007 47.43540192
rfoot  -2.316020982e-006 -16.59970093 4.44961071
rtoes  5.373923086 19.29304026 -105.8922705
lowerback  12.35830021 1.470810056 0.9886648655
upperback  3.285399914 2.058860064 1.449790001
thorax  -3.499490023 0.9849259853 0.6437900066
rclavicle  0 -9.442270133e-015 7.951389973e-016
rhumerus  -16.51479912 27.15950012 -78.55519867
rradius  -7.782816926e-012 0.001642658608 117.7519989
rwrist  0.002739921212 0.003270594636 -4.437570095
rthumb  -92.93752616 -24.25625642 -97.11982154
rhand  -7.920061211e-032 -33.2840004 9.303460121
rfingers  -90 -7.125020027 -90
lclavicle  0 -9.442270133e-015 7.951389973e-016
lhumerus  -24.28899956 2.568059921 83.6977005
lradius  1.032089952e-011 -0.003757435596 131.6170044
lwrist  1.816137865e-011 1.409039812e-011 5.535079956
lthumb  89.89689403 5.08795885 91.16245106
lhand  -1.496451383e-031 -27.76390076 20.11240005
lfingers  90 7.125020027 -90
lowerneck  -8.289699554 6.222310066 -1.005329967
upperneck  6.173530102 8.511730194 -0.8621219993
head  3.451669931 4.155320168 0.3628099859
22
root  10.64280037 40.73822142 -7.289378099 -5.779600143 -50.95859909 6.893430233
lfemur  -25.21219444 10.82320023 -15.19750309
ltibia  -1.491570742e-006 -8.364404493e-007 55.91008759
lfoot  5.521815751e-007 -0.7557692528 -3.877298832
ltoes  -4.250644065 -19.5611806 -102.515957
rfemur  -16.88039398 17.23200035 3.717907906
rtibia  -8.727266732e-007 2.533748784e-007 47.05568314
rfoot  -2.316020982e-006 -16.20159149 5.459860802
rtoes  5.373923086 19.29304026 -105.8922705
lowerback  12.28250027 1.423120022 1.340230107
upperback  3.364089966 2.039989948 1.628669977
thorax  -3.36977005 0.9733020067 0.638225019
rclavicle  0 -9.442270133e-015 7.951389973e-016
rhumerus  -15.53269958 27.09980011 -78.06369781
rradius  -7.782816926e-012 0.001642658608 119.4919968
rwrist  0.002739921212 0.003270594636 -5.008180141
rthumb  -92.93752616 -24.25625642 -97.11982154
rhand  -7.920061211e-032 -33.2840004 9.303460121
rfingers  -90 -7.125020027 -90
lclavicle  0 -9.442270133e-015 7.951389973e-016
lhumerus  -23.75729942 2.215310097 83.15470123
lradius  1.032090038e-011 -0.003757435596 132.4140015
lwrist  1.816137865e-011 1.409039812e-011 5.809269905
lthumb  89.89689403 5.08795885 91.16245106
lhand  -1.496451383e-031 -27.76390076 20.11240005
lfingers  90 7.125020027 -90
lowerneck  -7.877910137 6.30603981 -0.8117849827
upperneck  6.082159996 8.60653019 -1.013509989
head  3.357330084 4.204470158 0.2682519853
23
root  10.6993112 40.74355599 -7.226132971 -5.573400021 -51.04669952 6.493500233
lfemur  -25.26339531 10.87520027 -14.73280144
ltibia  -1.491570742e-006 -8.364404493e-007 55.7571907
lfoot  5.521815751e-007 -1.881475806 -1.217629671
ltoes  -4.250644065 -19.5611806 -102.515957
rfemur  -16.57499504 17.76009941 3.625958443
rtibia  -8.727266732e-007 2.533748784e-007 46.85848999
rfoot  -2.316020982e-006 -15.87639523 5.639530182
rtoes  5.373923086 19.29304026 -105.8922705
lowerback  12.20699978 1.372580171 1.72912991
upperback  3.390450001 2.022500038 1.792019963
thorax  -3.29302001 0.9626700282 0.5944839716
rclavicle  0 -9.442270133e-015 7.951389973e-016
rhumerus  -14.5934 26.91830063 -77.57879639
rradius  -7.782816926e-012 0.001642658608 121.1729965
rwrist  0.002739921212 0.003270594636 -5.470890522
rthumb  -92.93752616 -24.25625642 -97.11982154
rhand  -7.920061211e-032 -33.2840004 9.303460121
rfingers  -90 -7.125020027 -90
lclavicle  0 -9.442270133e-015 7.951389973e-016
lhumerus  -23.02090073 1.690569997 82.46140289
lradius  1.032089865e-011 -0.003757435596 133.1380005
lwrist  1.816137865e-011 1.409039812e-011 6.177350044
lthumb  89.89689403 5.08795885 91.16245106
lhand  -1.496451383e-031 -27.76390076 20.11240005
lfingers  90 7.125020027 -90
lowerneck  -7.460309982 6.359499931 -0.6560500264
upperneck  6.054629803 8.654219627 -0.9973828793
head  3.274369955 4.235660076 0.2325539738
24
root  10.75115579 40.73000029 -7.162355438 -5.448140144 -51.11949921 6.199920177
lfemur  -25.25029564 10.80780029 -14.29870319
ltibia  -1.491570742e-006 -8.364404493e-007 55.40339279
lfoot  5.521815751e-007 -3.143624306 1.455389977
ltoes  -4.250644065 -19.5611806 -102.515957
rfemur  -16.28909683 18.06209946 3.5623281
rtibia  -8.727266732e-007 2.533748784e-007 46.89159012
rfoot  -2.316020982e-006 -16.11109352 4.61509943
rtoes  5.373923086 19.29304026 -105.8922705
lowerback  12.12320042 1.314499974 2.000790119
upperback  3.396950006 1.980610013 1.951869965
thorax  -3.236619949 0.9406170249 0.6164330244
rclavicle  0 -9.442270133e-015 7.951389973e-016
rhumerus  -13.58520031 26.78070068 -77.04660034
rradius  -7.782816926e-012 0.001642658608 122.8089981
rwrist  0.002739921212 0.003270594636 -5.84497118
rthumb  -92.93752616 -24.25625642 -97.11982154
rhand  -7.920061211e-032 -33.2840004 9.303460121
rfingers  -90 -7.125020027 -90
lclavicle  0 -9.442270133e-015 7.951389973e-016
lhumerus  -22.02479935 1.043149948 81.63369751
lradius  1.032090038e-011 -0.003757435596 133.9400024
lwrist  1.816137865e-011 1.409039812e-011 6.70028019
lthumb  89.89689403 5.08795885 91.16245106
lhand  -1.496451383e-031 -27.76390076 20.11240005
lfingers  90 7.125020027 -90
lowerneck  -7.241839886 6.426109791 -0.5066739917
upperneck  6.324590206 8.730070114 -0.9926829338
head  3.333420038 4.274879932 0.211073041
